<?xml version="1.0" encoding="utf-8"?>
<svg viewBox="0 0 20 20" width="20" height="20" xmlns="http://www.w3.org/2000/svg">
  <path d="M 19.272 9.16 L 15.366 2.373 C 15.069 1.843 14.51 1.512 13.902 1.5 L 6.094 1.5 C 5.486 1.512 4.931 1.843 4.631 2.373 L 0.727 9.143 C 0.425 9.67 0.425 10.317 0.727 10.843 L 4.63 17.67 C 4.926 18.205 5.482 18.548 6.093 18.571 L 13.901 18.571 C 14.513 18.551 15.073 18.209 15.366 17.672 L 19.272 10.886 C 19.577 10.351 19.577 9.695 19.272 9.16 Z" fill="#4285f4"/>
  <path d="M 18.152 12.827 L 11.728 6.403 L 11.268 7.398 L 10.264 6.397 L 9.798 7.391 L 8.81 6.401 L 8.564 7.601 L 7.685 7.749 L 7.5 8.533 L 6.36 8.803 L 7.382 9.825 L 6.372 10.273 L 7.382 11.283 L 6.367 11.725 L 13.209 18.567 L 13.901 18.567 C 14.513 18.546 15.073 18.204 15.366 17.67 Z" style="opacity: 0.07; isolation: isolate;"/>
  <path d="M 10.862 9.01 L 9.17 9.01 C 9.073 9.01 8.993 9.088 8.992 9.19 L 8.992 10.884 C 8.992 10.983 9.072 11.063 9.17 11.063 L 10.862 11.063 C 10.959 11.06 11.036 10.981 11.036 10.884 L 11.036 9.19 C 11.035 9.088 10.956 9.01 10.859 9.01" fill="#fff"/>
  <path d="M 13.543 8.874 C 13.635 8.875 13.709 8.802 13.709 8.709 L 13.709 8.449 C 13.709 8.359 13.635 8.286 13.545 8.286 L 12.72 8.286 L 12.72 7.51 C 12.72 7.413 12.641 7.333 12.541 7.332 L 11.769 7.332 L 11.769 6.511 C 11.769 6.42 11.695 6.348 11.604 6.348 L 11.34 6.348 C 11.256 6.35 11.185 6.423 11.185 6.511 L 11.185 7.336 L 10.31 7.336 L 10.31 6.511 C 10.31 6.42 10.235 6.347 10.147 6.348 L 9.887 6.348 C 9.797 6.348 9.722 6.42 9.722 6.511 L 9.722 7.336 L 8.855 7.336 L 8.855 6.511 C 8.855 6.42 8.783 6.348 8.693 6.348 L 8.427 6.348 C 8.337 6.348 8.267 6.42 8.267 6.511 L 8.267 7.336 L 7.496 7.336 C 7.398 7.336 7.318 7.413 7.316 7.51 L 7.316 8.282 L 6.49 8.282 C 6.403 8.282 6.329 8.354 6.329 8.442 L 6.329 8.707 C 6.329 8.797 6.403 8.87 6.49 8.87 L 7.316 8.87 L 7.316 9.735 L 6.49 9.735 C 6.403 9.735 6.329 9.809 6.329 9.9 L 6.329 10.167 C 6.329 10.258 6.398 10.332 6.49 10.332 L 7.316 10.332 L 7.316 11.199 L 6.49 11.199 C 6.403 11.199 6.329 11.272 6.329 11.363 L 6.329 11.628 C 6.329 11.717 6.403 11.786 6.49 11.786 L 7.316 11.786 L 7.316 12.559 C 7.316 12.656 7.395 12.735 7.494 12.735 L 8.267 12.735 L 8.267 13.565 C 8.267 13.651 8.337 13.723 8.427 13.723 L 8.693 13.723 C 8.783 13.723 8.855 13.651 8.855 13.565 L 8.855 12.735 L 9.722 12.735 L 9.722 13.565 C 9.722 13.651 9.797 13.723 9.887 13.723 L 10.147 13.723 C 10.235 13.723 10.308 13.651 10.308 13.565 L 10.308 12.735 L 11.185 12.735 L 11.185 13.565 C 11.185 13.651 11.258 13.723 11.349 13.723 L 11.613 13.723 C 11.7 13.723 11.773 13.651 11.773 13.565 L 11.773 12.735 L 12.548 12.735 C 12.644 12.732 12.72 12.655 12.72 12.559 L 12.72 11.786 L 13.543 11.786 C 13.635 11.786 13.709 11.717 13.709 11.626 L 13.709 11.362 C 13.709 11.272 13.635 11.197 13.545 11.197 L 12.72 11.197 L 12.72 10.332 L 13.543 10.332 C 13.635 10.333 13.709 10.26 13.709 10.167 L 13.709 9.904 C 13.711 9.81 13.636 9.734 13.543 9.735 L 12.72 9.735 L 12.72 8.874 L 13.543 8.874 Z M 12.112 12.14 L 7.919 12.14 L 7.919 7.942 L 12.112 7.942 Z" fill="#fff"/>
</svg>