<?xml version="1.0" encoding="utf-8"?>
<svg viewBox="0 0 20 20" width="20" height="20" xmlns="http://www.w3.org/2000/svg">
  <path d="M 18.787 9.757 L 15.087 3.327 C 14.805 2.825 14.276 2.511 13.7 2.5 L 6.303 2.5 C 5.727 2.511 5.201 2.825 4.917 3.327 L 1.218 9.741 C 0.932 10.24 0.932 10.853 1.218 11.351 L 4.916 17.819 C 5.196 18.326 5.723 18.651 6.302 18.673 L 13.699 18.673 C 14.279 18.654 14.809 18.33 15.087 17.821 L 18.787 11.392 C 19.076 10.885 19.076 10.264 18.787 9.757 Z" style="fill: rgb(66, 133, 244);"/>
  <path d="M 17.726 13.231 L 11.64 7.145 L 11.204 8.088 L 10.253 7.139 L 9.812 8.081 L 8.876 7.143 L 8.643 8.28 L 7.81 8.42 L 7.635 9.163 L 6.555 9.419 L 7.523 10.387 L 6.566 10.811 L 7.523 11.768 L 6.561 12.187 L 13.043 18.669 L 13.699 18.669 C 14.279 18.649 14.809 18.325 15.087 17.819 Z" style="opacity: 0.07; isolation: isolate;"/>
  <path d="M 10.82 9.615 L 9.217 9.615 C 9.125 9.615 9.049 9.689 9.048 9.785 L 9.048 11.39 C 9.048 11.484 9.124 11.56 9.217 11.56 L 10.82 11.56 C 10.912 11.557 10.985 11.482 10.985 11.39 L 10.985 9.785 C 10.984 9.689 10.909 9.615 10.817 9.615" style="fill: rgb(255, 255, 255);"/>
  <path d="M 13.36 9.486 C 13.447 9.487 13.517 9.418 13.517 9.33 L 13.517 9.083 C 13.517 8.998 13.447 8.929 13.362 8.929 L 12.58 8.929 L 12.58 8.194 C 12.58 8.102 12.505 8.026 12.41 8.025 L 11.679 8.025 L 11.679 7.247 C 11.679 7.161 11.609 7.093 11.523 7.093 L 11.273 7.093 C 11.193 7.095 11.126 7.164 11.126 7.247 L 11.126 8.029 L 10.297 8.029 L 10.297 7.247 C 10.297 7.161 10.226 7.092 10.142 7.093 L 9.896 7.093 C 9.811 7.093 9.74 7.161 9.74 7.247 L 9.74 8.029 L 8.918 8.029 L 8.918 7.247 C 8.918 7.161 8.85 7.093 8.765 7.093 L 8.513 7.093 C 8.428 7.093 8.361 7.161 8.361 7.247 L 8.361 8.029 L 7.631 8.029 C 7.538 8.029 7.462 8.102 7.46 8.194 L 7.46 8.925 L 6.678 8.925 C 6.595 8.925 6.525 8.993 6.525 9.077 L 6.525 9.328 C 6.525 9.413 6.595 9.482 6.678 9.482 L 7.46 9.482 L 7.46 10.302 L 6.678 10.302 C 6.595 10.302 6.525 10.372 6.525 10.458 L 6.525 10.711 C 6.525 10.797 6.591 10.867 6.678 10.867 L 7.46 10.867 L 7.46 11.689 L 6.678 11.689 C 6.595 11.689 6.525 11.758 6.525 11.844 L 6.525 12.095 C 6.525 12.179 6.595 12.245 6.678 12.245 L 7.46 12.245 L 7.46 12.977 C 7.46 13.069 7.535 13.144 7.629 13.144 L 8.361 13.144 L 8.361 13.93 C 8.361 14.012 8.428 14.08 8.513 14.08 L 8.765 14.08 C 8.85 14.08 8.918 14.012 8.918 13.93 L 8.918 13.144 L 9.74 13.144 L 9.74 13.93 C 9.74 14.012 9.811 14.08 9.896 14.08 L 10.142 14.08 C 10.226 14.08 10.295 14.012 10.295 13.93 L 10.295 13.144 L 11.126 13.144 L 11.126 13.93 C 11.126 14.012 11.195 14.08 11.281 14.08 L 11.531 14.08 C 11.614 14.08 11.683 14.012 11.683 13.93 L 11.683 13.144 L 12.417 13.144 C 12.508 13.141 12.58 13.068 12.58 12.977 L 12.58 12.245 L 13.36 12.245 C 13.447 12.245 13.517 12.179 13.517 12.093 L 13.517 11.843 C 13.517 11.758 13.447 11.687 13.362 11.687 L 12.58 11.687 L 12.58 10.867 L 13.36 10.867 C 13.447 10.868 13.517 10.799 13.517 10.711 L 13.517 10.462 C 13.519 10.373 13.448 10.301 13.36 10.302 L 12.58 10.302 L 12.58 9.486 L 13.36 9.486 Z M 12.004 12.58 L 8.032 12.58 L 8.032 8.603 L 12.004 8.603 Z" style="fill: rgb(255, 255, 255);"/>
</svg>