<?xml version="1.0" encoding="utf-8"?>
<svg viewBox="0 0 20 20" width="20" height="20" xmlns="http://www.w3.org/2000/svg">
  <path d="M 12.751 15.364 L 10.812 18.741 L 5.721 18.741 C 5.267 18.741 4.847 18.499 4.621 18.103 L 0.506 10.928 C 0.282 10.538 0.282 10.058 0.506 9.672 L 2.071 6.937 L 4.007 10.295 L 6.922 15.364 Z" fill="#fbbc05"/>
  <path d="M 19.169 10.928 L 15.052 18.106 C 14.825 18.499 14.407 18.744 13.951 18.744 L 10.809 18.744 L 12.751 15.364 L 15.671 10.295 L 12.751 5.23 L 16.626 5.23 L 19.169 9.672 C 19.394 10.058 19.394 10.538 19.169 10.928 Z" fill="#ea4335"/>
  <path d="M 16.617 5.23 L 6.914 5.23 L 3.996 10.295 L 2.064 6.937 L 4.615 2.489 C 4.841 2.095 5.259 1.853 5.715 1.853 L 13.95 1.853 C 14.403 1.853 14.821 2.095 15.046 2.489 Z" fill="#4285f4"/>
  <path d="M 12.751 5.23 L 15.667 10.295 L 12.751 15.364 L 6.922 15.364 L 4.007 10.295 L 6.922 5.23 L 12.751 5.23" fill="#e0e0e0"/>
  <circle cx="9.838" cy="10.295" r="2.535" fill="#fff"/>
</svg>