<?xml version="1.0" encoding="utf-8"?>
<svg viewBox="0 0 20 20" width="20" height="20" xmlns="http://www.w3.org/2000/svg">
  <path d="M 10.069 2.097 L 16.675 5.25 L 18.309 12.34 L 13.739 18.027 L 6.405 18.03 L 1.83 12.345 L 3.465 5.25 Z" fill="#fff"/>
  <path d="M 10.008 1.328 C 9.848 1.337 9.693 1.377 9.55 1.448 L 3.291 4.438 C 2.967 4.589 2.723 4.895 2.643 5.242 L 1.101 11.958 C 1.03 12.268 1.089 12.603 1.261 12.868 C 1.283 12.9 1.306 12.931 1.332 12.961 L 5.664 18.351 C 5.886 18.626 6.24 18.795 6.597 18.795 L 13.544 18.795 C 13.904 18.795 14.255 18.626 14.481 18.351 L 18.812 12.961 C 19.034 12.682 19.123 12.304 19.043 11.958 L 17.497 5.242 C 17.417 4.895 17.168 4.589 16.848 4.433 L 10.59 1.448 C 10.407 1.36 10.208 1.319 10.008 1.328 Z" fill="#316be5"/>
  <path d="M 10.056 12.158 C 10.11 12.158 10.163 12.167 10.212 12.189 C 10.279 12.22 10.327 12.274 10.363 12.331 L 10.368 12.331 L 11.322 14.055 C 11.198 14.095 11.07 14.13 10.94 14.161 C 10.212 14.326 9.484 14.277 8.826 14.05 L 9.777 12.331 L 9.781 12.331 C 9.835 12.225 9.945 12.162 10.056 12.158 Z M 8.427 11.363 C 8.573 11.367 8.706 11.469 8.742 11.62 C 8.76 11.692 8.751 11.763 8.724 11.825 L 8.728 11.834 L 7.977 13.642 C 7.281 13.193 6.721 12.522 6.423 11.696 L 8.355 11.367 L 8.359 11.372 C 8.382 11.367 8.404 11.363 8.427 11.363 Z M 11.7 11.359 C 11.727 11.354 11.754 11.359 11.775 11.363 L 11.781 11.359 L 13.73 11.687 C 13.446 12.491 12.9 13.184 12.171 13.651 L 11.412 11.82 L 11.415 11.816 C 11.344 11.656 11.415 11.465 11.576 11.39 C 11.616 11.372 11.66 11.359 11.7 11.359 Z M 9.768 9.755 L 10.372 9.755 L 10.746 10.222 L 10.612 10.807 L 10.069 11.065 L 9.528 10.807 L 9.394 10.222 Z M 13.37 8.338 C 13.588 8.693 13.757 9.088 13.854 9.515 C 13.952 9.942 13.975 10.363 13.935 10.772 L 12.042 10.225 L 12.037 10.216 C 11.869 10.172 11.763 9.999 11.802 9.826 C 11.82 9.755 11.856 9.697 11.909 9.653 L 11.909 9.648 Z M 6.761 8.338 L 8.231 9.653 L 8.226 9.662 C 8.359 9.777 8.382 9.977 8.271 10.114 C 8.226 10.172 8.164 10.207 8.098 10.23 L 8.098 10.234 L 6.21 10.776 C 6.116 9.901 6.321 9.048 6.761 8.338 Z M 10.541 6.521 C 11.394 6.627 12.18 7.014 12.784 7.605 L 11.185 8.737 L 11.176 8.737 C 11.034 8.839 10.834 8.813 10.723 8.675 C 10.678 8.618 10.656 8.551 10.652 8.485 Z M 9.603 6.521 L 9.488 8.485 L 9.484 8.488 C 9.475 8.666 9.328 8.809 9.151 8.809 C 9.079 8.809 9.012 8.782 8.959 8.742 L 8.955 8.746 L 7.342 7.605 C 7.84 7.117 8.471 6.757 9.204 6.592 C 9.337 6.561 9.47 6.539 9.603 6.521 Z M 10.069 3.616 C 9.866 3.616 9.696 3.802 9.696 4.033 L 9.696 4.042 L 9.696 4.14 C 9.702 4.273 9.727 4.37 9.745 4.495 C 9.777 4.757 9.804 4.97 9.79 5.175 C 9.772 5.25 9.718 5.321 9.666 5.366 L 9.657 5.526 C 9.435 5.544 9.208 5.579 8.982 5.632 C 8.008 5.85 7.169 6.352 6.534 7.027 C 6.494 7.001 6.419 6.947 6.397 6.934 C 6.33 6.943 6.264 6.961 6.174 6.912 C 6.01 6.796 5.854 6.641 5.673 6.454 C 5.587 6.365 5.526 6.281 5.424 6.192 C 5.401 6.175 5.366 6.148 5.339 6.126 C 5.263 6.064 5.17 6.032 5.082 6.028 C 4.966 6.023 4.855 6.067 4.779 6.161 C 4.651 6.321 4.695 6.57 4.872 6.712 L 4.878 6.716 C 4.903 6.739 4.935 6.76 4.957 6.778 C 5.064 6.859 5.161 6.899 5.268 6.961 C 5.49 7.099 5.677 7.214 5.823 7.351 C 5.881 7.414 5.89 7.521 5.898 7.569 L 6.019 7.676 C 5.375 8.644 5.082 9.839 5.254 11.056 L 5.099 11.101 C 5.055 11.154 4.997 11.239 4.939 11.26 C 4.744 11.323 4.527 11.345 4.264 11.372 C 4.144 11.385 4.038 11.376 3.904 11.403 C 3.877 11.407 3.837 11.416 3.807 11.425 L 3.802 11.425 C 3.802 11.425 3.798 11.429 3.798 11.429 C 3.576 11.483 3.433 11.683 3.483 11.883 C 3.526 12.083 3.74 12.207 3.962 12.158 L 3.971 12.158 L 3.976 12.153 C 4.007 12.149 4.047 12.14 4.073 12.131 C 4.203 12.1 4.296 12.047 4.411 12.003 C 4.66 11.914 4.864 11.842 5.064 11.811 C 5.148 11.807 5.238 11.865 5.277 11.887 L 5.441 11.86 C 5.819 13.024 6.606 13.966 7.6 14.557 L 7.533 14.721 C 7.56 14.783 7.587 14.868 7.569 14.934 C 7.494 15.121 7.369 15.321 7.227 15.543 C 7.16 15.645 7.089 15.724 7.027 15.841 C 7.014 15.867 6.991 15.912 6.978 15.943 C 6.885 16.147 6.951 16.387 7.138 16.476 C 7.324 16.565 7.556 16.471 7.657 16.263 C 7.671 16.231 7.689 16.196 7.702 16.165 C 7.756 16.045 7.774 15.939 7.809 15.823 C 7.911 15.574 7.965 15.312 8.102 15.152 C 8.138 15.108 8.2 15.09 8.262 15.072 L 8.346 14.916 C 9.217 15.25 10.19 15.339 11.163 15.121 C 11.385 15.067 11.598 15.006 11.802 14.925 C 11.829 14.97 11.874 15.049 11.883 15.072 C 11.949 15.09 12.02 15.103 12.073 15.188 C 12.175 15.361 12.247 15.565 12.331 15.819 C 12.371 15.934 12.388 16.041 12.442 16.161 C 12.456 16.187 12.474 16.227 12.486 16.254 C 12.589 16.462 12.819 16.556 13.006 16.467 C 13.188 16.378 13.26 16.143 13.167 15.934 C 13.149 15.907 13.131 15.863 13.117 15.836 C 13.055 15.717 12.984 15.64 12.913 15.538 C 12.775 15.316 12.655 15.13 12.584 14.943 C 12.553 14.846 12.589 14.784 12.611 14.722 C 12.598 14.704 12.567 14.614 12.549 14.57 C 13.584 13.957 14.348 12.979 14.707 11.851 C 14.756 11.86 14.841 11.874 14.868 11.883 C 14.925 11.842 14.979 11.794 15.08 11.803 C 15.281 11.834 15.485 11.905 15.734 11.994 C 15.844 12.038 15.938 12.091 16.067 12.127 C 16.093 12.131 16.133 12.14 16.164 12.145 C 16.169 12.145 16.169 12.149 16.173 12.149 L 16.177 12.149 C 16.4 12.198 16.614 12.074 16.662 11.874 C 16.707 11.674 16.564 11.474 16.342 11.421 C 16.311 11.412 16.266 11.399 16.236 11.394 C 16.107 11.368 16 11.376 15.876 11.363 C 15.614 11.337 15.396 11.314 15.204 11.257 C 15.125 11.226 15.072 11.132 15.041 11.092 L 14.889 11.048 C 14.97 10.479 14.948 9.889 14.814 9.297 C 14.676 8.702 14.432 8.155 14.112 7.676 C 14.148 7.64 14.223 7.578 14.246 7.556 C 14.25 7.489 14.246 7.418 14.312 7.343 C 14.463 7.205 14.645 7.094 14.871 6.952 C 14.979 6.89 15.076 6.85 15.183 6.769 C 15.204 6.752 15.24 6.725 15.267 6.707 C 15.445 6.561 15.485 6.316 15.356 6.153 C 15.228 5.992 14.979 5.974 14.796 6.121 C 14.774 6.139 14.738 6.166 14.716 6.188 C 14.614 6.272 14.552 6.356 14.467 6.45 C 14.281 6.636 14.13 6.792 13.961 6.903 C 13.89 6.947 13.783 6.934 13.734 6.93 L 13.593 7.032 C 12.78 6.179 11.673 5.632 10.483 5.531 C 10.479 5.477 10.474 5.389 10.474 5.362 C 10.425 5.313 10.368 5.277 10.354 5.175 C 10.336 4.97 10.363 4.757 10.395 4.496 C 10.411 4.372 10.443 4.273 10.447 4.14 C 10.447 4.109 10.443 4.064 10.443 4.033 C 10.443 3.803 10.279 3.616 10.069 3.616 Z" fill="#fff"/>
</svg>