<?xml version="1.0" encoding="utf-8"?>
<svg viewBox="0 0 20 20" width="20" height="20" xmlns="http://www.w3.org/2000/svg">
  <path d="M 20 9 C 20 11.933 17.667 14.4 14.467 14.933 C 14.467 14.933 14.4 14.933 14.4 14.933 L 12.467 15 L 4.667 15 C 2.067 15 0 12.933 0 10.333 C 0 7.733 2.067 5.667 4.667 5.667 C 5.6 5.667 6.533 5.933 7.267 6.467 C 8.333 4.4 10.733 3 13.333 3 C 17 3 20 5.667 20 9 Z" fill="#607C8B"/>
  <path d="M 17.267 10.267 L 12.467 19.333 C 12.333 19.533 12.133 19.667 11.867 19.667 C 11.8 19.667 11.733 19.667 11.667 19.667 C 11.333 19.6 11.133 19.267 11.2 18.933 L 11.933 13 L 8.667 13 C 8.4 13 8.2 12.867 8.067 12.667 C 7.933 12.467 7.933 12.2 8.067 12 L 12.067 5.333 C 12.2 5.067 12.533 4.933 12.8 5 C 13.067 5.067 13.267 5.333 13.267 5.667 L 13.267 9.267 L 16.6 9.267 C 16.8 9.267 17.067 9.4 17.2 9.6 C 17.333 9.8 17.333 10.067 17.267 10.267 Z" fill="#FFC10A"/>
</svg>