<?xml version="1.0" encoding="utf-8"?>
<svg viewBox="0 0 20 20" width="20" height="20" xmlns="http://www.w3.org/2000/svg">
  <path d="M 19.5 8.4 C 19.5 11.186 17.284 13.53 14.244 14.036 C 14.244 14.036 14.18 14.036 14.18 14.036 L 12.344 14.1 L 4.934 14.1 C 2.464 14.1 0.5 12.136 0.5 9.666 C 0.5 7.196 2.464 5.234 4.934 5.234 C 5.82 5.234 6.706 5.486 7.404 5.994 C 8.416 4.03 10.696 2.7 13.166 2.7 C 16.65 2.7 19.5 5.234 19.5 8.4 Z" fill="#607C8B"/>
  <path d="M 16.904 9.604 L 12.344 18.216 C 12.216 18.406 12.026 18.534 11.774 18.534 C 11.71 18.534 11.646 18.534 11.584 18.534 C 11.266 18.47 11.076 18.154 11.14 17.836 L 11.836 12.2 L 8.734 12.2 C 8.48 12.2 8.29 12.074 8.164 11.884 C 8.036 11.694 8.036 11.44 8.164 11.25 L 11.964 4.916 C 12.09 4.664 12.406 4.536 12.66 4.6 C 12.914 4.664 13.104 4.916 13.104 5.234 L 13.104 8.654 L 16.27 8.654 C 16.46 8.654 16.714 8.78 16.84 8.97 C 16.966 9.16 16.966 9.414 16.904 9.604 Z" fill="#FFC10A"/>
</svg>